<?xml version="1.0" encoding="UTF-8"?>
<svg viewBox="0 0 136.86809 132.92601" xmlns="http://www.w3.org/2000/svg">
 <g transform="translate(-238.14 -103.36)">
  <path d="m356.64 236.29c-1.375-0.03569-4.1818-0.68266-6.2374-1.4377s-5.6844-2.7124-8.0641-4.3497l-4.3267-2.9768-3.7485-4.5746-3.7485-4.5746-3.6404-7.7553-3.6404-7.7553-0.04699-9.5-0.04699-9.5 1.75-3.4036c0.9625-1.872 1.75-3.8809 1.75-4.4643v-1.0607l-1.3875 1.4643c-0.76311 0.80536-3.4204 6.1751-5.9051 11.933l-4.5176 10.468 2.8931 2.9592 2.8931 2.9592 0.59297 3.1608c0.32613 1.7384 0.48556 3.796 0.35428 4.5724s0.13041 2.2642 0.58152 3.3063l0.8202 1.8946-1.9125 1.4138-1.9125 1.4138-2.5-0.60317c-1.375-0.33174-4.1832-0.97181-6.2404-1.4224l-3.7404-0.81922-0.89408 1.114c-0.49175 0.61269-1.2169 2.6223-1.6114 4.4658l-0.71729 3.3518-3.8424 3.8424-3.8424 3.8424-3.5288 0.662-3.5288 0.66199-5.0648-1.215-5.0648-1.215-5.7968-4.2673-5.7967-4.2673-4.099-6.1383-4.099-6.1383-2.2391-5.7355-2.239-5.7355-0.27857-8.5-0.27858-8.5 2.2012-4.2047 2.2012-4.2047 2.8246-2.1766 2.8246-2.1766 4.2056-0.47403 4.2056-0.47403 3.7638 1.5726 3.7638 1.5726 0.4299-1.2173c0.23645-0.66953 0.88768-3.3284 1.4472-5.9087l1.0173-4.6914-0.59809-1.5586c-0.32895-0.85723-0.98708-1.5586-1.4625-1.5586h-0.86442l-1.0201-3.25-1.0201-3.25 0.35285 2.75 0.35284 2.75-1.1113-0.01645c-0.61123-0.00905-2.869-1.0216-5.0173-2.25l-3.906-2.2336-2.094-2.8233-2.094-2.8233v-14.015l1.9546-1.4292 1.9546-1.4292 2.0454 2.4395c1.125 1.3417 3.6204 3.3694 5.5454 4.5061l3.5 2.0666 1.9243 0.00374 1.9243 0.00374-2.1982 2.3399-2.1982 2.3399-0.90245 3.1466-0.90245 3.1466 0.95111 0.58781 0.9511 0.58782-0.1432-0.82433c-0.07875-0.45339-0.08991-1.6568-0.02477-2.6743l0.11842-1.85 3.279-3.279 3.279-3.279-3.1071-1.1236-3.1071-1.1236-2.2262-2.3696-2.2262-2.3696 1.5921-0.61095 1.5921-0.61095 0.58548 1.5257 0.58548 1.5257 3.8368 1.9574c2.1102 1.0766 4.1048 1.9574 4.4324 1.9574s-0.66699-1.0867-2.2102-2.4149l-2.8058-2.4149 0.74387-0.74561 0.74387-0.74561 2.139 1.9105 2.139 1.9105-0.80611-2.5c-0.44335-1.375-0.72987-3.5527-0.6367-4.8393s0.42266-2.7491 0.73222-3.25 0.97501-0.91067 1.4788-0.91067h0.91598l-0.52941 2.75-0.52942 2.75 1.3782 6 1.3782 6 4.1762 0.30749 4.1762 0.3075v-11.997l0.928-0.57354 0.92801-0.57354 0.64435 2.0302 0.64436 2.0302 2.5625-2.0157 2.5625-2.0157h4.0402l-1.6023-1.7706c-0.88129-0.97381-2.0864-2.8863-2.678-4.25l-1.0756-2.4794 0.54205 2.75 0.54205 2.75h-0.7785c-0.42818 0-1.3512-0.91694-2.051-2.0376l-1.2725-2.0376-2.755 1.6274-2.755 1.6274-3.463-1.5082-3.463-1.5082 3.203-0.08157 3.2029-0.08158 2.5471-1.1605c1.4009-0.63829 2.547-1.5015 2.547-1.9182s0.27314-1.4695 0.60699-2.3395l0.60699-1.5818h-7.096l-0.61803-1-0.61804-1h8.118v-5.6229l2.039-2.1886 2.039-2.1886h8.0214l2.8986 1.499 2.8986 1.499 2.5517 3.3454 2.5517 3.3454v3.5819l-2.5 2.3169-2.5 2.3169v5.0955h-2.5189l-1.2304 1.9702-1.2304 1.9702 1.8519 0.9911 1.8519 0.9911 2.1663-2.3059 2.1663-2.3059-0.67545-1.9055-0.67545-1.9055 1.1706 1.0734c0.64382 0.59038 1.3504 2.0068 1.5701 3.1477s1.5409 3.8825 2.9361 6.0925 3.0346 4.326 3.6432 4.7021 2.4557 2.5463 4.1047 4.8226l2.9981 4.1388 4.1859 2.0114 4.1858 2.0114 2.4127 4.4091 2.4127 4.4091-2.2467 1.8193-2.2467 1.8193-4.098-0.27441-4.0979-0.27441-0.40132-1.204-0.40132-1.204h2.5915l-4.9248-5c-2.7086-2.75-5.3007-5-5.7602-5s-1.9158 1.1658-3.2363 2.5907l-2.401 2.5907-0.98218-0.60701-0.98217-0.60702-0.61946 1.0023-0.61946 1.0023 2.7108 4.764c1.4909 2.6202 3.8169 5.8442 5.1689 7.1644l2.4581 2.4004 5.6314 0.18169 5.6314 0.18168 4.9578 2.3757 4.9578 2.3757 5.6842 5.6842 5.6842 5.6842 3.6646 7.4149 3.6646 7.4149 1.1274 6.5818 1.1274 6.5818-1.2125 5.418-1.2125 5.418-3.0156 3.6585-3.0156 3.6585-3.7059 1.0292c-2.0382 0.56609-4.8309 1.0001-6.2059 0.96437zm0.36385-3 2.8638 0.07608 3.794-2.1323 3.794-2.1323 1.8422-4.1005 1.8422-4.1005-0.10943-7.0172-0.10942-7.0172-2.2402-5.8242-2.2402-5.8242-4.6587-6.1758-4.6587-6.1758-4.8377-3.2386-4.8377-3.2386-3.8134-1.1425-3.8134-1.1425-2.5328 0.63569-2.5328 0.63571 6.507 10.745c3.5789 5.91 7.6029 11.895 8.9422 13.3s2.4352 2.8676 2.4352 3.25-0.46412 0.69528-1.0314 0.69528h-1.0314l-0.61327-1.75c-0.33729-0.9625-1.83-3.1-3.3172-4.75s-4.9096-6.5621-7.6054-10.916-5.2202-8.3999-5.6098-8.9916l-0.70836-1.076-1.1438 1.1438-1.1438 1.1438 4.6805 10.486 4.6805 10.486 2.9216 2.799 2.9216 2.799v2.8772l-3.2538-3.5523-3.2538-3.5523-4.9564-10.073c-2.726-5.5404-5.2769-10.073-5.6687-10.073s-1.2516 1.6341-1.9108 3.6313l-1.1984 3.6313 0.44547 7.6953 0.44547 7.6953 3.049 6.4234c1.677 3.5329 4.4754 8.3589 6.2187 10.725l3.1697 4.3011 4.5226 3.1989c2.4874 1.7594 5.9554 3.7271 7.7067 4.3728s4.4728 1.2082 6.0479 1.25zm-68.515-1.0099 2.3489 0.08595 3.476-1.6495 3.476-1.6495 1.4597-2.2278c0.80284-1.2253 1.8864-3.7157 2.408-5.5343s0.84348-3.4055 0.71539-3.5265-4.5079-0.53493-9.7329-0.91985c-5.225-0.38491-9.874-0.92731-10.331-1.2053l-0.83103-0.50548 0.60008-2.3909 0.60008-2.3909-0.62746-2.5-0.62746-2.5h-8l0.67496-2.6893c0.37123-1.4791 1.7722-8.0769 3.1133-14.662s2.3237-12.058 2.1834-12.162-1.7846-0.70662-3.6542-1.3383-4.6155-1.1484-6.1021-1.1484h-2.7029l-3.2963 2.25-3.2963 2.25-1.9184 3.5-1.9184 3.5 0.41266 8 0.41267 8 2.6414 6.3912 2.6414 6.3912 4.0942 5.3069 4.0943 5.3069 4.871 3.1257c2.679 1.7191 6.1298 3.5038 7.6684 3.966s3.8544 0.87893 5.1463 0.92621zm13.461-16.054 0.81037 0.13987-0.31037-3.7277-0.31036-3.7277-4-0.63958c-2.2-0.35178-6.1046-0.91119-8.677-1.2432l-4.6769-0.60355-0.67422 3.0697-0.67422 3.0697 1.0148 1.0148 1.0148 1.0148 7.8363 0.74645c4.31 0.41055 8.201 0.80939 8.6467 0.88632zm5.9613 0.13987h2.0384l-1.5437-1.75-1.5437-1.75-0.69267-3.2587-0.69267-3.2587-0.71602 0.44252-0.71602 0.44253 0.17422 2.3162c0.09582 1.2739 0.50713 3.3287 0.91402 4.5662l0.73981 2.25h2.0384zm11.383-4c0.18975 0 0.34501-1.125 0.34501-2.5v-2.5h-4v0.67126c0 0.36919 0.74474 1.4942 1.655 2.5s1.8102 1.8287 2 1.8287zm-20.655-6.2086 2.5 0.02662-7.3729-1.9528-7.3729-1.9528-0.54376 0.54377-0.54377 0.54376 0.56892 0.56892c0.3129 0.3129 2.7504 0.93497 5.4167 1.3824s5.9728 0.82544 7.3478 0.84008zm15.75 0.19331c0.9625-0.00842 2.3231-0.37906 3.0236-0.82363l1.2736-0.80831-2.0847-1.8866-2.0847-1.8866-0.92364 1.4602c-0.508 0.80313-0.93053 2.0227-0.93895 2.7102l-0.01531 1.25 1.75-0.01531zm-10.367-0.98469c0.21085 0 0.60569-0.85019 0.87743-1.8893l0.49406-1.8893-0.86212-1.3607-0.86212-1.3607-0.01531 3.25c-0.00842 1.7875 0.1572 3.25 0.36806 3.25zm-23.831-1c0.09361 0-0.03536-1.0753-0.28659-2.3895l-0.45678-2.3895 1.5013-2.3605 1.5012-2.3605 0.68793-8.133 0.68793-8.1331-1.0217-0.63146-1.0217-0.63147-0.49331 1.7645c-0.27132 0.97048-1.485 6.4544-2.6972 12.186l-2.2039 10.422 1.8163 1.3281c0.99897 0.73047 1.8929 1.3281 1.9865 1.3281zm29.095-1.5319c0.74414-1.0177 1.353-2.2143 1.353-2.6592v-0.80887h-3.7227l0.50834 2.6592 0.50834 2.6592 1.353-1.8503zm-10.397 0.41593 1.75 0.116v-2.6834l-3.866-1.1583c-2.1263-0.63705-5.5013-1.1583-7.5-1.1583h-3.634v1.9229l3.75 0.96264c2.0625 0.52946 4.65 1.1696 5.75 1.4226s2.7875 0.5121 3.75 0.5759zm-9.3636-5.884h6.1136v-1.9749l-4.0775-2.574-4.0775-2.574 0.63645-3.7672 0.63646-3.7672-1.4637-1.2148-1.4637-1.2148-0.56847 3.7934c-0.31265 2.0864-0.8566 5.9309-1.2088 8.5434l-0.64031 4.75h6.1135zm21.723 0h1.0097l4.1964-9.1872 4.1964-9.1872-1.2561-0.79745c-0.69084-0.4386-2.0917-0.80435-3.1131-0.81277l-1.857-0.01531 0.57785-1.5058 0.57785-1.5059-3.7209-2.3246c-2.0465-1.2785-6.5806-3.8387-10.076-5.6894l-6.3548-3.3648-1.3775-2.1023-1.3775-2.1023-1.4159-8.4524-1.4159-8.4524-0.10178 2.4181c-0.05598 1.33 0.39889 5.2931 1.0108 8.8071l1.1126 6.389 2.3049 2.6929 2.3049 2.6929 8.0588 4.5 8.0588 4.5 0.02372 10.55 0.02372 10.55-1.2 1.2-1.2 1.2h1.0097zm-8.8033-8c0.1806 0 0.06829-0.81942-0.24957-1.8209l-0.57794-1.8209 0.85243-6.2331 0.85243-6.2331-2.0919-1.4764-2.0919-1.4764-1.2905 4.4679-1.2905 4.4679 0.75369 4.3076 2.4026 2.9087c1.3214 1.5998 2.5504 2.9087 2.731 2.9087zm-13.001-14.034 0.30563-3.8898-1.2805-2.2882-1.2805-2.2882-0.60549 5-0.60548 5 1.5804 1.178 1.5804 1.178 0.30563-3.8898zm-6.0704 0.03376h0.99291l0.63592-4.6396c0.34976-2.5518 0.62224-5.5893 0.60552-6.75l-0.03041-2.1104-0.90901 1.5529c-0.49995 0.85413-1.2192 3.8916-1.5984 6.75l-0.68941 5.1971h0.9929zm46.265-1h1v-2.118l-1 0.61804c-0.55 0.33991-1 0.81647-1 1.059s0.45 0.44099 1 0.44099zm-8.25-5.012 1.25 0.01205v-0.95455c0-0.525-1.1455-2.1-2.5455-3.5l-2.5454-2.5454h-7.5091l-1.2-1.2c-0.66-0.66-1.2-1.5172-1.2-1.9048v-0.70484l4.0396 0.54182 4.0396 0.54183 1.4544-1.887 1.4544-1.887-0.50744-2.2277-0.50745-2.2277 2.875 0.575 2.875 0.57499 3.0952-1.6006 3.0952-1.6006-3.2067-5.2151c-1.7637-2.8683-4.8942-6.9168-6.9567-8.9967l-3.75-3.7816h-6.7042l-3.3861 2.2819-3.3861 2.2819-0.63118 3.8831-0.63118 3.8831 0.78345 2.585 0.78344 2.585 0.08595-1.8724 0.08596-1.8724 1.6172 1.3422 1.6172 1.3422-0.53314 5.1656-0.53314 5.1656 3.1659 3.046c1.7412 1.6753 5.1909 4.1965 7.6659 5.6026s5.0625 2.562 5.75 2.5687zm-32.191-5.988c0.24255 0 0.44099-0.44999 0.44099-0.99999v-1h-2.118l0.61804 1c0.33992 0.55 0.81647 0.99999 1.059 0.99999zm13.103-7.75 0.50439-1.25-0.50439-1.25-0.50439-1.25v5l0.50439-1.25zm44.588 0.63399c0.4125 0.0638 0.75-0.32362 0.75-0.86094s-1.139-1.7233-2.5312-2.6355-2.7528-1.437-3.0235-1.1662-0.21842 1.2061 0.11636 2.0785l0.60868 1.5862 1.6648 0.44093c0.91567 0.24251 2.0024 0.49312 2.4149 0.55692zm-44.75-4.884c0.275 0 0.5-0.225 0.5-0.5s-0.225-0.5-0.5-0.5-0.5 0.225-0.5 0.5 0.225 0.5 0.5 0.5zm-14.5-10h1.3333l-0.66667-0.66667-0.66666-0.66667-0.66667 0.66667-0.66667 0.66667h1.3333zm19.5-23c0.275 0 0.5-0.225 0.5-0.5s-0.225-0.5-0.5-0.5-0.5 0.225-0.5 0.5 0.225 0.5 0.5 0.5zm12.392-5.2684 0.39195-1.0833-3.6273-3.3242-3.6273-3.3241-2.2647 0.0442-2.2647 0.04419 3.7032 1.9557 3.7032 1.9557 1.7968 2.4075 1.7968 2.4076 0.39195-1.0833zm-6.987 0.23245 1.595-0.03596-2.9609-2.4198c-1.6285-1.3309-3.1632-2.2174-3.4105-1.9702s0.36737 1.3524 1.3659 2.4558l1.8155 2.0061 1.595-0.03596zm-57.655 121.81c-3.7125-0.09692-9-0.46487-11.75-0.81767l-5-0.64145 11.75-0.15711 11.75-0.1571v1.9495l-6.75-0.17621zm85.25-0.02294c-3.85 0.00714-8.35-0.28363-10-0.64615l-3-0.65913 1.5-0.58216 1.5-0.58215 8.5 1.2283 8.5 1.2283-7 0.01299zm-71-2.0857c-3.85-0.09059-9.1375-0.30188-11.75-0.46951l-4.75-0.30479v-1.8904l1.75 0.05524c0.9625 0.03039 6.25 0.66701 11.75 1.4147l10 1.3595-7-0.16473zm1.5688-102.66c-0.40453 0-0.99461-0.2591-1.3113-0.57578l-0.57577-0.57578 1.9701-3.691 1.9701-3.691 3.189-1.8632c1.7539-1.0248 5.3265-2.439 7.939-3.1427l4.75-1.2796v0.7086c0 0.38973-1.6875 1.2958-3.75 2.0136s-5.4965 2.4852-7.6311 3.9277l-3.8811 2.6228-0.96673 2.7732c-0.5317 1.5252-1.2977 2.7732-1.7022 2.7732z"/>
 </g>
</svg>
